<?xml version="1.0" encoding="UTF-8"?>
<svg version="1.1" viewBox="0 0 2048 815" width="1280" height="1280" xmlns="http://www.w3.org/2000/svg">
<path transform="translate(424,97)" d="m0 0h27l31 3 26 5 28 8 25 10 19 9 22 13 16 11 14 11 10 9 8 7 14 14 18 22 12 17 9 15 12 23 9 21 9 28 5 21 4 27 1 11v44l-3 26-5 25-7 24-7 19-9 20-9 17-10 16-12 17-11 13-7 8-12 13-13 12-14 11-15 11-19 12-25 13-25 10-22 7-26 6-31 4-30 1-30-2-30-5-27-7-22-8-20-9-21-11-19-12-13-10-11-9-10-9-23-23-9-11-12-16-12-19-10-18-8-17-9-24-7-24-5-25-3-27v-42l3-27 5-25 7-25 11-28 11-22 12-20 10-14 11-14 9-10 7-8 12-12 8-7 16-13 19-13 15-9 21-11 27-11 27-8 24-5 23-3zm-12 9-30 4-26 6-30 10-26 12-18 10-18 12-17 13-12 11-4 3v2h118l82-82v-1zm31 0 4 5 8 7 39 39 7 8 24 24 118 1-2-4-10-9-14-11-17-12-13-8-22-12-24-10-21-7-25-6-25-4-10-1zm-7 4-18 18-8 7-49 49-3 5h158l-6-7-72-72zm-208 85v113l7-6 106-106v-1zm154 0 6 7 11 11 1 26h75l1-1 1-26 16-16v-1zm151 0 2 4 109 109h1l1-53v-59l-57-1zm-313 3-12 13-10 13-10 14-11 18-12 23-11 27-7 24-5 23-3 22-1 22 7-6 35-35 8-7 34-34v-117zm432 0v118l53 53 7 8 22 22h1l-1-23-3-23-6-27-6-20-11-27-10-20-11-18-12-17-9-11-9-10zm-325 20-76 76v1l25 1 18 18 4-2 49-49-2-4-16-16-1-25zm220 2-1 24-14 14-3 2 2 4 38 38 7 8 3 3 4-2 15-15h24l-2-4-72-72zm-139 88-6 3-5 6-2 4v5h2l1 5 4 6 3-1-4-4v-2l2-1v-6h-3-2l1-5 4-5 4-1 5 4 3 5 1 4v8l-2 4 4-2 5-7v-13l-10-7zm68 2-5 5-1 2 1 10 4 11 1 5h-2l-1-7-6-14-2 1-1 5h-3l1-2v-9h-3l-2 10h-2v-10l-2 2-2 8-1-8-3-1-2 8-2-8h-2v10l-3-3-1-7h-2l-1 7-1-8-2-1-1 12h-2l-1-10-2 4 2 16 7 7 1 10 4 3 1-4 1-7 2 15 1 2-3 1-1 2v9l-2 6 1 7 5 6 3 2 3 9h7l5-7-4-1v-2l4-2 5-2v-2l-3-1v-3l2-2 2-4 8-7 3-4 1-9 1-4h3v-6l-1-1v-11l-6-8-1-9 2-6 8 1-2-4-3-2zm10 6 1 4v7l-4 1 2-9-4-2-2 3v10l3 4h6l3-4 1-5-5-9zm-265 8-20 20-8 7-51 51 2 4 76 76h1l1-33v-125zm431 1-1 48v110l4-2 76-76-1-3-8-7-28-28-7-8-34-34zm-244 1 1 5 2 4h1l-1-8zm169 3-2 8 1 2-2 1 2 6-2 5 1 7 1 3h-2l-1-2v5l-4-1v4l-5 1-10 13-4 8-5 18-2 5-1 27 4 20 1 2 4-2v2l-5 5-5 4-10 6-3 4-2 16 4 1 3-9v-2h2v9l1 2 4-1 3-8 4-1-3 4v6l4-3 1-6-1-4h4l9-16-3-1 2-4 2-1 1 2 4-16 10-22 3-11v-11l-4-12-7-10h-4l-4 3 7-11 7-8 3-6 1-23 1-8zm-274 3 1 2zm121 2m-122 1m270 1m-3 1m4 0 1 2zm-3 1 1 2zm-79 1v2l3-1zm-97 1-2 2 5-1zm8 1m-102 1-2 4 1 3 2-7zm121-1-11 5-2 5v4l5-1 6-3 1-2 5 1 5 3h2v-7l-4-5-5 1zm-12 2m160 0m-161 1m86 0v4l6 1 3-1zm-190 1m184 1m-186 1m-2 1m273 0m-345 1v109l7-6 10-10 30-1v-75h-29l-17-17zm69 0-4 13 1 10 4 9h3l-1-5-1-2 1-5-2-3-1-7-1-3 3-1-1-6zm206 0m-13 1-3 2h9l-2-2zm76 0 1 2zm78 0-16 16-27 1v74l1 1 26 1 16 16h1v-109zm-342 3-2 5 3-3zm186 1 4 2 4-1zm13 1-2 3 9 4 2-1-1-3h-4l1-2zm-5 1m-114 1m101 0-1 1v15h6l-1-2h-2v-3l2-1v3l11 5v-2l3-1-6-5-9-5 9 3v-3l6 3h2l-1-4-6-3-10-1zm-86 1-1 2h2zm27 1-5 2 3 1 1 4 3 1 4-3-1-4zm-37 2m123 1 1 2 2-1zm58 0m-191 1m136 1m-117 0-7 4-8 9h3l13-11 1-2zm99 1m-103-4-11 9-9 9-7 8v2h-2l5-9h-3l5-6 4-8h-3v2l-4 1-1 5h-2l1-3-5 2-10 7-6 3h-2l-2 5h-2l-3-1-1 3-7 1-4 1 1 7 9 20 4 3-1 5 5-2 2-1-2 4 2 2 1 8 4 1-1-3 5 3 8 10 4 1-1 6 5 5 13 6 3-1-4-4-10-5h-2l-1-6 4 5 6 2 8 2 6 2 2 4 5 1 2-1 2 4 5 2v-3l1 3h5l2 3 2 4 3 3h5l-1 7 5 3 2 6 2 1v-8l3 5 3-1 1 4 3-1 1-2v-12l-5-8-8-7-16-8-15-8-8-4 1-3 6 2 7 4 5 1 5 5v-3h3l2 5 5 1 4 1 3 5h3v2l6 5 4 10 3 14h4l1-1v-15l-3-10-5-6-13-9-9-6v-4l-2-1v-7l3-10-4 4-5 8-5 2 1-6 3-9v-6l-2-2-2 13-5 5 5-10h-2l-6 10-1-3 2-4h-4l-4 4 2-5 11-14 2-6-4 2-5 5v3h-4l-1 4-3 2-3 7h-1l1-7 4-6 10-9 3-4 1-6-4 5-14 14-5 11-2 1 3-10 2-4 10-14 6-14-1-2-4 9-6 10-9 10-3 6-2 1 3-6-1-2h-1l-1-2-2 1-1-2v-3l3-3-1-2-2 2h-3l-2 1 11-19 8-10 6-6v-2l-4 1-9 10-9 13-5 7 5-10v-3l-3 2-1-3-6 5 9-12 9-10 10-8 1-2zm-13 5-8 9 1 2 7-7 1-4zm118 0m11 0m-10 1 3 2v-2zm-61 1-2 4v4h2l1-2v-6zm69 0m4 0-1 3 5 1-1 5 6 5-5-2-7-4h-2l2 4 5 4h3l1 3-14-9-1 2 2 4h-3v4h-2l-1-2v2l-2 1 1 2h6l-1-3 9 6 2 6 4 4-1 2 1 3-6-1 4-2-2-2h-4v2h-3v-5h3l-1-5-8-3v2l-4-1v2h-3l1 4 1 3-6 1-1 2-5-2-7-2-2-3 3-1-2-4v2l-3-1-2 2 1 5 6 5v2l-4-2-5-7h-2l2 5 8 9 2 3 3-2-2-6 10 6 1 7-3 1 1 5-8-5-5-6v3l4 7 5 3 6 2-2 2 4 8-6-4 1 5v4l4 4 6 1 1 2-5 1-7 5-12 6-5 4-2 4-1 9 2 10 3 1 4-2 2-9 2-1-1 11 7-3 2-7 2 4 7-12 9-4 3-5 4-6 9-8 3-5-1-5-1-3 10-15v-3h2l-5 13-3 3v2l6-2 7-6 2-8 2-15 5-17 5-10 2-5-6-1-18-1-9 1-3-3 2-1-2-1-5-1zm-3 1m13 3 3 3 1-2zm-43 1-6 8 4-1 3-5zm24 0m4 0 3 3v-3zm-106 1-1 2 3-1zm27 0v4h2v-4zm57 1 1 3 2-1-1-2zm5 0m-91 1m92 0 4 2-1-2zm-119 1m-1 1m11 0m20 0-12 13-1 6 3-3 12-16zm80 0v2l4-1zm6 0m7 0 1 2 2-1zm-125 1m120 0m2 1 1 2 2-1zm6 0m-17 1v2l9 5 2-1-6-5zm18 0m-95 1-7 6-10 16-2 3h4l16-22 3-3zm66 0m19 0 5 5h3l-6-5zm6 0m5 0m-32 1m28 0m5 0m-199 1m176 0-2 8 6 1h3l6 4-2-4-3-3v-3l-5-3zm19 0m-106 1m107 0m-177 1v2h2v-2zm111 0-2 5 2 2 3-7zm-43 1-2 3h3l1-3zm-55 1m158 0m-186-4 1 5 8 8 4 8-4 1-1-8h-3l-1-4-2-3-4 2-7 10-4 11v17l8 17 6 10 3 15 6 9 9 9 4 1 3 1v-4l5 3 3-1-3-5-4-3 5 1 6 7 4 8 2-4v-7l-5-9-5-3h3l10 3 3 3v10l-1 5 3 1 3-9v-8l-3-6-6-4-5-1h-15l-10-4-4-9v-7l-5-1 2-4v-5h-3l1 5h-3v-8l-1-1 4-1-1-7 7-7 2-7-3-3-2 1 2-5 3 1 5 12 4 13h1v-7l-4-14-9-19-11-9zm101 9-6 13 1 2 4-7 2-5zm62 2m15 1 3 2v-2zm-101 1-4 5 1 2 4-5zm5 0v3zm92 0 1 3h3v3h4l-2-4zm-66 2-1 4 2 2v-6zm21 0 2 6 1 1h7l2-2v-4h-8zm55 0v2l2-1zm-93 1-3 4 4-2zm22 2-1 1v8l1 6v13l2-3v-12l-1-13zm-41 2 1 2zm34 1 1 2zm55 0 1 3v-3zm2 3 1 2zm-87 1m-242 1v11l2 21 4 24 8 30 10 26 12 25 12 20 13 18 9 11 11 12 2 1 1-84v-32l-49-49-7-8-26-26zm241 0m42 0v9l1-4h2l1 2-1-6zm-43 1 1 2zm355 0-82 82v117l3-1 7-8 11-13 13-18 11-18 12-23 10-25 7-22 6-27 3-23 1-21zm-268 2 1 3h2l-1-3zm6 1m1 1 1 2zm8 1m4 0 2 2v-2zm-74 1-7 8 1 2 7-6zm71 0m1 1m1 1m-54 1-1 3v8h1l1-11zm55 0m-63 2v6h1v-6zm18 2-2 1-4 16v6l7 12 5 5 5-1 8-10v-2h-7l-4-6-3-11-2-3v-7zm33 0v7l2 3v-9zm-158 1-2 2h4v-2zm118 0-4 13 1 3 4-8v-8zm-114 3 1 2zm21 1 1 2zm-26 1 1 2 1-2zm103 0-2 6 3-3zm61 0v7l4 8h1v-7l-4-8zm-50 2 1 2zm110 1-4 6 4-2 1-4zm-219 1m-5 1 1 2 2-1zm113 0-2 4 1 4 2-5zm58 2m-134 4v2h2v-2zm-5 1m-29 2m166 1 1 2zm46 1v11 4l-10 13-4 8v13h4l2-8 2-1v7l2-2 4-14 4-5 9-7 1-3-13-16zm-45 1m-15 3-8 11-5 9 1 25 2 4 3-1 2-5 1-15 4-9 7-6 4-3-2-5-5-4zm-81 17m1 1m7 3 2 4 4 3 7 1 4 3 3 7h3v5l2 1-1-7-4-7-5-4-3-3h-7zm27 14 1 2zm-126 6-20 20-26 1 6 7 70 70h2l1-25 20-20-6-7-46-46zm281 3-51 51 3 5 15 15 1 24 4-2 73-73v-1l-25-1-18-18zm-349 6v112h112l-6-7-105-105zm416 0-76 76-8 7-28 28v1l77 1h35l1-1v-112zm-217 12-6 4-4 6-1 7 2 6 2 1h6v-3h-3l-1-6 4-10 2-2h5l1 1v7l-3 10-6 9-7 6-11 5v2l10-3 9-5 7-6 5-9 2-7-1-7-3-5-2-1zm26 0-7 5-3 6v9l3 4h6l2-2-5-1v-8l5-10h5l1 1v8l-3 10-7 10-9 6-8 3v2l11-3 10-6 8-9 4-11-1-9-5-5zm27 0-5 3-5 6-3 8 1 8 3 5 6 1 8-5 6-12-1-9-5-5zm-79 1 1 2h4l-4 21-1 4-6 1v1h17l-4-3 4-20 1-3 5-2v-1zm-2 52-1 30-16 16v1h108l-6-7-9-9-1-6-1-24-20-1zm-169 53 1 3 8 7 13 11 18 13 20 12 21 11 25 10 22 7 27 6 22 3 12 1h11l-6-7-77-77zm127 0 2 4 76 76 4-2 76-76v-1l-124-1zm168 1-20 20-8 7-55 55v1h12l21-2 28-5 22-6 20-7 23-10 19-10 20-13 12-9 11-9 10-9 2-1v-2z" fill="#008E9B"/>
<path transform="translate(429,20)" d="m0 0h14l33 2 29 4 27 6 24 7 20 7 23 10 16 8 15 8 19 12 17 12 14 11 14 12 16 15 16 17 9 11 14 18 15 23 12 21 11 22 11 27 8 25 7 29 4 23 3 31v46l-3 30-4 24-8 32-9 27-9 21-12 25-13 22-8 12-10 14-13 16-12 14-25 25-11 9-13 11-19 13-15 10-25 14-26 12-24 9-19 6-24 6-28 5-30 3h-47l-30-3-28-5-28-7-27-9-30-13-25-13-24-15-16-12-14-11-10-9-8-7-22-22-9-11-10-12-13-18-11-17-14-25-12-26-9-24-8-26-6-27-4-26-2-24v-43l3-31 4-24 8-32 9-27 11-26 11-22 10-17 14-21 9-12 13-16 11-12 9-10 17-16 13-11 20-15 15-10 15-9 24-13 25-11 25-9 25-7 30-6 23-3zm-20 9-27 3-28 5-26 7-24 8-28 12-25 13-18 11-16 11-13 10-11 9-12 11-8 7-11 11-7 8-12 14-15 20-11 17-11 19-8 15-11 25-8 22-8 29-5 24-3 21-2 25v36l3 33 5 28 6 24 11 33 11 25 13 25 11 18 14 20 13 16 12 14 25 25 11 9 12 10 18 13 21 13 22 12 24 11 27 10 29 8 31 6 25 3 17 1h29l27-2 33-5 32-8 32-11 25-11 23-12 21-13 18-13 14-11 15-13 27-27 9-11 12-15 14-20 14-24 8-16 9-19 11-30 7-25 6-30 3-24 1-12v-46l-3-30-5-28-8-30-9-26-11-25-13-25-13-21-13-18-13-16-12-14-22-22-11-9-13-11-18-13-19-12-18-10-27-13-26-10-27-8-27-6-28-4-12-1z" fill="#008E9B"/>
<path transform="translate(1181,444)" d="m0 0h37l16 3 10 4 10 8 6 9 3 8v21l-5 13-7 9-9 6-7 3 3 2 10 4 9 7 7 9 4 10 1 6v14l-3 12-5 9-9 10-11 7-10 4-13 3-9 1h-27l-22-2-5-2v-174l7-2zm6 20-8 1-1 1v57h30l11-4 11-7 6-7 3-8v-13l-4-8-5-5-10-5-10-2zm-9 79v61l5 1h33l12-4 8-6 6-7 2-6v-17l-4-8-5-5-8-5-10-3-7-1z" fill="#008E9B"/>
<path transform="translate(926,193)" d="m0 0 19 1 15 3 12 5 9 6 7 7 6 10 3 10 1 18-2 13-5 13-7 9-9 8-14 7-17 4-10 1h-19l-6-1v66h-24v-175l5-2 14-2zm-15 21-2 1v72h26l12-2 12-5 6-5 6-10 2-7v-18l-4-10-5-6-10-6-9-3-5-1z" fill="#3B3B39"/>
<path transform="translate(960,446)" d="m0 0h22l1 155 2 23-15 1-3-7-3-9-10 10-12 6-9 2h-13l-11-2-12-6-7-6-7-11-4-12-2-12-1-12v-11l2-16 5-16 8-12 9-8 12-6 12-3h24l12 3zm-34 68-10 4-7 6-5 8-4 14v29l3 13 5 9 8 7 8 3h13l9-3 8-7 5-10 1-4v-64l-8-4-4-1z" fill="#008E9B"/>
<path transform="translate(1430,243)" d="m0 0h23l12 3 9 5 8 8 5 10 3 12v25l-2 7h-80l3 19 6 12 5 5 9 5 10 2h12l12-3 11-6 2-1 8 15-2 4-16 8-13 3-9 1h-9l-16-3-9-4-9-6-8-10-5-10-4-15-1-7v-25l3-16 5-12 6-9 8-8 14-7zm9 19-11 2-10 6-6 9-3 9-1 6 1 1h59v-10l-3-10-4-6-8-5-9-2z" fill="#3B3B39"/>
<path transform="translate(1976,242)" d="m0 0 16 1 13 4 11 7 8 9 7 14 3 12 1 7v27l-3 15-5 13-8 11-9 7-11 5-9 2h-22l-12-3-11-6-6-5-7-10-4-8-4-15-1-7v-26l3-15 5-13 8-11 10-8 13-5zm-2 20-10 3-6 4-5 6-4 8-3 16v20l3 15 6 11 7 7 9 4 11 1 12-3 8-6 6-10 3-10 1-7v-22l-3-14-6-12-8-7-7-3-5-1z" fill="#3B3C3A"/>
<path transform="translate(1055,243)" d="m0 0h22l12 3 11 6 6 5 7 10 5 11 3 12 1 8v24l-3 16-5 13-8 11-9 7-8 4-11 3-8 1h-9l-16-3-12-6-9-8-7-11-5-14-2-12v-27l3-15 5-13 9-12 10-7 9-4zm8 19-12 3-8 6-6 10-3 10-1 7v22l3 14 5 10 6 7 10 5 5 1 14-1 10-5 6-7 4-8 3-15v-21l-3-15-5-10-5-6-6-4-12-3z" fill="#3B3B3A"/>
<path transform="translate(1336,494)" d="m0 0h21l12 3 8 5 7 8 3 6 2 12v22l-1 26v24l2 18 1 6h-17l-3-8-2-7-7 6-9 6-11 4-7 1h-12l-11-3-9-5-8-9-4-9-1-6v-10l2-9 6-10 7-6 10-5 12-3 8-1 22-1 9 1v-19l-3-10-5-4-7-2h-18l-18 4-9 4h-2l-6-15v-3l13-6 17-4zm6 73-12 2-12 6-4 6-1 9 3 7 4 5 9 4h13l11-4 9-7 4-6v-22z" fill="#008E9B"/>
<path transform="translate(1684,243)" d="m0 0h22l11 3 9 6 7 11 3 10 1 7v93h-22l-1-84-3-13-5-8-8-4-10-1-11 2-10 6-6 8-3 6-1 88h-23v-127h17l3 12h2l8-7 12-6z" fill="#3B3B39"/>
<path transform="translate(1317,215)" d="m0 0h3v31h35v19l-34 1v73l2 11 5 5 3 1 13-1 8-3h4l4 13-1 5-15 5-13 2-14-1-10-5-4-5-4-11-1-6-1-83-18-1-1-3v-15l1-1h19v-25z" fill="#3B3C3A"/>
<path transform="translate(1559,243)" d="m0 0h26l16 4 6 3-1 7-4 12-2 1-12-5-13-2-12 1-9 4-7 6-5 10-3 15v21l4 16 6 10 8 6 7 3 5 1h9l10-2 15-7 7 16-1 3-14 7-13 3-17 1-13-2-11-4-9-7-7-8-6-13-3-12-1-8v-27l3-15 5-13 8-11 9-7 8-4z" fill="#3B3C3A"/>
<path transform="translate(1862,243)" d="m0 0h25l14 3 9 4-3 11-3 9-18-6-14-1-12 3-9 6-5 8-3 9-2 16v9l2 14 4 11 6 8 8 6 11 3h10l12-3 9-5h3l6 14-1 4-9 5-12 4-15 2-16-1-13-4-11-7-8-10-6-13-3-15-1-9v-16l2-15 4-13 5-10 9-10 9-6 11-4z" fill="#3B3C3A"/>
<path transform="translate(1147,195)" d="m0 0h16l6 1 1 151 3 7 4 2 13-1 6-1 2 10 1 7-5 3-9 2-15 1-10-3-6-4-4-5-3-8z" fill="#3B3B39"/>
<path transform="translate(1462,494)" d="m0 0h19l8 2-2 12-2 9-2 1-9-2h-10l-10 4-6 8-2 11-1 85h-21l-1-1v-127h16l2 5 2 8 9-10z" fill="#008E9B"/>
<path transform="translate(1228,246)" d="m0 0h22v127h-23v-126z" fill="#3B3C3A"/>
<path transform="translate(1767,246)" d="m0 0h22v127h-22l-1-1v-125z" fill="#3B3B39"/>
<path transform="translate(1023,496)" d="m0 0h22l1 1v126l-1 1h-22z" fill="#008E9B"/>
<path transform="translate(1513,496)" d="m0 0h22v128h-22z" fill="#008E9B"/>
<path transform="translate(509,62)" d="m0 0 1 3h11l3 3v2l6-2h6l5 5-1 9-2 8v6l6 2 8-16 1-3-2-1v-2l10 1v3h8l5 5 1 2h10l4 4-1 8-6 14 2 5-9-3-4-2 1-2h3l7-15-1-5-6-1h-2l-3 9-3 6 1 4 1 2-5-1-8-4 1-2 4-1 6-13v-5l-1-1h-7l-7 14v4l2 2-5-1-11-4-11-3v-2h4l3-16-1-5-4-1-4 2-4 17v2h3v2l-11-2-3-1 1-2h3l4-17-1-4h-7l-3 9-2 10 3 3-8-1-6-2 4-2 4-15v-5l-2-1v-2z" fill="#008E9B"/>
<path transform="translate(567,699)" d="m0 0h13l8 5 6 12v10l-5 8-8 7-21 9-3-1 4-3-1-5-12-27-1-2h-7l3-3 20-9zm-1 4-11 4 1 7 12 26 1 2 7-2 6-4 4-6 1-3v-7l-3-8-5-5-5-3z" fill="#008E9B"/>
<path transform="translate(710,576)" d="m0 0h8l5 4 2 5-1 7 13-1 11-2h3l-6 9-24 3-3 5 5 2 7 4 4-1 3-2-2 5-8 12-2 1 1-6-4-4-23-15-4-1-3 3h-2l2-5 13-19zm-2 7-6 5-2 5 9 7 4 3h3l4-8v-6l-4-5-2-1z" fill="#008E9B"/>
<path transform="translate(372,61)" d="m0 0h2l3 13 3 12h3v2l-24 5-4 1 2-6-5-16-5-1-3 2 1 8 3 11 5 1-1 2-13 3 2-3-1-7-4-12-7 1-1 1 1 8 3 10 5 2-3 2-11 3v-2l2-1-1-8-3-13h-5l3-3 4-3h2l2 2 5-5h7 4l4-4 7-1 4 4 6 18v2l7-1 1-5-3-16-4-2z" fill="#008E9B"/>
<path transform="translate(644,652)" d="m0 0 9 1 4 6-1 8 6-1 5 2 4 4 1 8-6 9-14 11-5 4h-2l2-4-1-5-14-18-6-7-7 1 4-5 16-12zm-3 5-9 6 2 5 7 9 4-2 6-6v-7l-5-5zm13 15-6 3-5 5 11 13 5-2 6-7v-6l-4-5z" fill="#008E9B"/>
<path transform="translate(1775,193)" d="m0 0 10 2 5 4 3 7-1 9-4 5-7 3h-9l-6-4-3-4-1-3v-7l3-6 6-5z" fill="#3B3C3A"/>
<path transform="translate(1237,193)" d="m0 0 9 2 5 4 3 7-1 9-4 5-7 3h-9l-6-4-3-4-1-3v-7l3-6 6-5z" fill="#3B3C3A"/>
<path transform="translate(1029,444)" d="m0 0h10l6 4 4 6 1 6-3 8-5 4-3 1h-11l-6-4-3-5v-10l4-6 3-3z" fill="#008E9B"/>
<path transform="translate(1519,444)" d="m0 0h10l6 4 4 6v10l-4 6-6 3h-11l-6-4-3-5v-10l3-5 4-4z" fill="#008E9B"/>
<path transform="translate(500,719)" d="m0 0h12l8 4 6 8 2 6v11l-4 8-7 6-6 2h-13l-8-4-6-8-2-6v-9l3-8 7-7zm-1 3-6 4-3 6v12l4 10 4 5 3 2h11l7-6 2-7-1-11-5-10-4-4-3-1z" fill="#008E9B"/>
<path transform="translate(157,588)" d="m0 0h12l8 4 6 7 3 8v8l-3 8-7 7-10 4h-7l-8-3-5-4-5-8-1-3v-12l3-6 4-5zm8 5-8 3-10 9-3 5v8l4 7 5 3h9l10-5 7-7 3-7-1-8-4-5-6-3z" fill="#008E9B"/>
<path transform="translate(360,718)" d="m0 0 11 2 6 9 14 24 4-21-1-5-4-3 12 1 4 1v2l-6 1-7 37-2 2-8-13-14-24-2 7-3 21v2l5 2-2 1-12-2-2-2 4-1h2l5-27v-9l-4-3z" fill="#008E9B"/>
<path transform="translate(277,685)" d="m0 0 6 2 26 13 2 2-1 5-3 4-2-8-13-7-4-1-2 6-4 8 6 2 6 3h5l1-2h2l-2 6-4 7h-1l-2-7-13-7-2 6-4 8v3l15 7 7-1 4-2-2 4-4 5-6-1-23-12-7-4v-1h6l4-4 12-24 1-5z" fill="#008E9B"/>
<path transform="translate(147,545)" d="m0 0 4 5 8 14 2 6v6l-5 6-3 1h-7l-6-4-4-5-3-4-12 7v7h-2l-9-17h3l1 2 6-1 26-15 1-4zm3 14-14 8 4 7 3 2h7l5-4 1-7-3-5z" fill="#008E9B"/>
<path transform="translate(671,623)" d="m0 0 27 9 11 4h10l-2 4-10 10-2-1 2-5-8-3-4 1-10 10 3 11 7-2-6 7-5 4v-7l-14-39zm5 10 6 16 4-2 7-7v-2l-14-5z" fill="#008E9B"/>
<path transform="translate(454,725)" d="m0 0h8l8 1 3-1 1 6v8l-4-5-5-4-2-1h-9l-6 4-3 4-1 3v14l4 8 5 4 3 1h7l8-4 4-4h2l-2 4-7 6-3 1h-15l-8-4-6-8-1-3v-13l4-8 8-7z" fill="#008E9B"/>
<path transform="translate(243,663)" d="m0 0 9 5 24 16-1 4-4 6-1-4v-5l-6-5h-3l-17 26-1 5 3 3v2l-5-2-13-9 3-1 5-1 18-27-2-4-4-2-7 1-4 2 4-7z" fill="#008E9B"/>
<path transform="translate(327,711)" d="m0 0h14l10 5 4 1h2l-1 8-2 6h-2l-2-9-4-5-4-2h-10l-6 4-4 7-2 6v10l3 6 6 4 9 1 10-3-4 4-6 2h-8l-9-4-5-4-4-7-1-10 3-9 7-8z" fill="#008E9B"/>
<path transform="translate(196,619)" d="m0 0 4 2 7 7 4 6-7-2-8 7-17 17 4 6 7 6 7 1h5l-3 3-9 3-12-13-12-12v-2l6 2 8-7 10-9 7-7 1-3z" fill="#008E9B"/>
<path transform="translate(202,127)" d="m0 0 6 5 9 11 10 11h4l-2 5-3 3-1-1-4 7-6 3-8-1-6-5-3-7v-7l3-6 6-3-4-6-6-2zm3 18-4 5 1 6 7 8 2 1h6l5-4 1-3-10-12-2-1z" fill="#008E9B"/>
<path transform="translate(669,129)" d="m0 0 9 4-2 4-9 11-12 13-1 4 5 4 6-5 7-8v-3-2l6 2 3 3-15 15-1 7-7-6-8-7-6-5v-2l5 1 12-14 9-10z" fill="#008E9B"/>
<path transform="translate(557,390)" d="m0 0h2l-2 6-1 6 1 1v10l-1 2 5-4 2 2v4h-9l-1 9-1 5 1 4h2v7l3 4h2l1 3 2 1-2 4-6 1-5-2-3-12 2-33 5-14zm-4 15v6l2-3-1-3z" fill="#008E9B"/>
<path transform="translate(724,545)" d="m0 0h2l-1 6 8 5 21 11h5l2-3h2l-2 6-7 13-2-2 1-4-3-3-28-14-4 2-3 2 2-6z" fill="#008E9B"/>
<path transform="translate(461,335)" d="m0 0h6v2l-8 4-1 2v6h2l8-3 9 8 1 6-6 5 1-4-3 3h-3l2-4v-3h-8l1 5 3 2v2l-6-1-3-2v-4l-1 5 6 3 5 1-2 1-1 3-8-4-3-4-1 2-4-2v-18h2l1 14 4-4 1-12 4-7zm4 15-2 3 3 1 2-1-1-3z" fill="#008E9B"/>
<path transform="translate(604,679)" d="m0 0 2 1-3 3 1 6 14 25 5 2 3-1-1 3-14 8-3-1 3-2-1-7-15-26h-8l3-3z" fill="#008E9B"/>
<path transform="translate(226,648)" d="m0 0 6 4 10 8-1 2-6-1-8 9-9 11-4 6 1 5 1 2-4-1-13-11 2-1 6 1 12-14 9-12-1-4z" fill="#008E9B"/>
<path transform="translate(409,726)" d="m0 0h13l7 1-1 2-5 2-2 19v17l5 2v1h-10l-10-1v-2l6-1 2-36z" fill="#008E9B"/>
<path transform="translate(640,124)" d="m0 0 7 1 6 5 1 7-6 9-5 6-1 3 3 1-5 1-3-2v-5l-7-1-5-5 1-6 4-3h8l9 2 2-6v-2l-5-1-3 3-4-1-1-2zm-6 14-3 3 1 5 2 2h5l6-8-5-2z" fill="#008E9B"/>
<path transform="translate(600,100)" d="m0 0h9l6 4 4 6v7l-5 8-4 3-3 1h-7l-7-4-3-5-1-6 2-7 7-6zm5 2-5 3-5 10v7l3 4 4 1 6-3 4-6 1-3v-9l-3-3z" fill="#008E9B"/>
<path transform="translate(424,55)" d="m0 0h8l4 4 1 2 1 19 4-1-2 4-6 1-3-2-4 2h-8l-3-3v-7l6-5 7-3h3l-3-8h-6l-1 6-4 1-1-5 4-4zm5 13-6 4-2 3 1 4 2 2 6-1 2-2v-10z" fill="#008E9B"/>
<path transform="translate(300,82)" d="m0 0h8l5 4 1 3-12 6-5 1 4 7 2 1h7l5-5 2-4h1v7l-4 6-6 3-8-1-5-4-3-7v-8l3-5zm-2 3-3 5v4l6-1 6-3-1-4-1-1z" fill="#008E9B"/>
<path transform="translate(479,58)" d="m0 0h8l5 4 2 5-1 4-18-2 1 9 3 3h9l6-4-2 5-5 4-9 1-5-3-4-6v-7l3-8 4-4zm1 2-5 4v2l9 2h4l-1-6-3-2z" fill="#008E9B"/>
<path transform="translate(231,122)" d="m0 0h6l6 4-4 5-10 7 2 4 4 2 7-1 3-3 2-8 2 1v9l-4 6-4 2h-9l-7-6-2-4v-11l5-6zm-3 4-3 4v5l4 1 7-6v-3l-2-1z" fill="#008E9B"/>
<path transform="translate(405,43)" d="m0 0h7l2 2-1 4h-3l-2-3h-2l-1 11h8l-3 2h-5l2 23 7 1-4 2h-13l4-2-2-23h-4v-2l5-1v-8l3-5z" fill="#008E9B"/>
<path transform="translate(452,56)" d="m0 0h11l4 3v5l-5 1-3-6h-5l-3 3-1 3v7l2 6 8 1 7-4-2 5-5 4h-9l-5-4-2-5v-10l4-6z" fill="#008E9B"/>
<path transform="translate(482,513)" d="m0 0 4 2v8l-3 11-4 6-6 1-1-2v-9l4-11 4-5z" fill="#008E9B"/>
<path transform="translate(283,90)" d="m0 0 4 2-1 4-5 1-1 5 7 14h6l-4 4-8 4h-2v-2l2-1-3-9-5-9-5-1 6-7 2-1 2 2 3-5z" fill="#008E9B"/>
<path transform="translate(479,405)" d="m0 0 11 4 1-3 4 1v4l5 1 1 4 1 2-5-1-8-3-2-3-6-2z" fill="#008E9B"/>
<path transform="translate(240,100)" d="m0 0 5 1 3 4v8l-3 3 1-10-6 2-3-3 2-4z" fill="#008E9B"/>
<path transform="translate(502,440)" d="m0 0 3 1-1 8-2-1-1 3-6-2 2-5 4-1z" fill="#008E9B"/>
<path transform="translate(452,368)" d="m0 0 4 2 6 7v7l-6-5z" fill="#008E9B"/>
<path transform="translate(491,416)" d="m0 0 3 1 2 8 1 7-5-2z" fill="#008E9B"/>
<path transform="translate(455,389)" d="m0 0 3 1-2 9-5 1-1-2 5-5-5 2 1-4z" fill="#008E9B"/>
<path transform="translate(312,475)" d="m0 0 8 6 5 3v2l-3 1-8-7z" fill="#008E9B"/>
<path transform="translate(685,142)" d="m0 0 4 1 1 4-2 2-4-1-1-4z" fill="#008E9B"/>
<path transform="translate(369,47)" d="m0 0 4 2-1 4-4 1-2-2 1-4z" fill="#008E9B"/>
<path transform="translate(507,387)" d="m0 0 9 6 2 4h-4l-5-6-3-3z" fill="#008E9B"/>
<path transform="translate(563,400)" d="m0 0h2v6l-3 3h-2l1-7z" fill="#008E9B"/>
<path transform="translate(491,436)" d="m0 0 4 2v5h-2l-2-4z" fill="#008E9B"/>
<path transform="translate(315,414)" d="m0 0 1 4-3 3h-2l1-4z" fill="#008E9B"/>
<path transform="translate(497,398)" d="m0 0 4 1v6l-3-1z" fill="#008E9B"/>
<path transform="translate(501,426)" d="m0 0h2l2 3-1 4-2-1z" fill="#008E9B"/>
<path transform="translate(498,426)" d="m0 0 2 1v7h-2z" fill="#008E9B"/>
<path transform="translate(558,419)" d="m0 0h1l1 8h-2l-1-7z" fill="#008E9B"/>
<path transform="translate(500,410)" d="m0 0 4 1 3 4-5-2z" fill="#008E9B"/>
<path transform="translate(508,412)" d="m0 0 4 4h-3z" fill="#008E9B"/>
<path transform="translate(518,385)" d="m0 0 4 1v2l-5-1z" fill="#008E9B"/>
<path transform="translate(510,410)" d="m0 0 5 2-1 2z" fill="#008E9B"/>
<path transform="translate(556,469)" d="m0 0h2l-1 3h-2z" fill="#008E9B"/>
<path transform="translate(558,399)" d="m0 0h2l-1 4z" fill="#008E9B"/>
<path transform="translate(564,445)" d="m0 0h2l-1 3-2-2z" fill="#008E9B"/>
<path transform="translate(555,430)" d="m0 0 1 3-2 1z" fill="#008E9B"/>
<path transform="translate(502,414)" d="m0 0 3 3h-3z" fill="#008E9B"/>
<path transform="translate(512,388)" d="m0 0 4 1-2 1z" fill="#008E9B"/>
<path transform="translate(563,410)" d="m0 0h2v2h-2z" fill="#008E9B"/>
<path transform="translate(561,422)" d="m0 0 2 2h-2z" fill="#008E9B"/>
<path transform="translate(309,422)" d="m0 0 1 2-2-1z" fill="#008E9B"/>
<path transform="translate(505,408)" d="m0 0 2 2h-2z" fill="#008E9B"/>
<path transform="translate(295,362)" d="m0 0 1 2-2-1z" fill="#008E9B"/>
<path transform="translate(496,419)" d="m0 0" fill="#008E9B"/>
<path transform="translate(566,416)" d="m0 0" fill="#008E9B"/>
<path transform="translate(507,384)" d="m0 0" fill="#008E9B"/>
<path transform="translate(509,409)" d="m0 0" fill="#008E9B"/>
<path transform="translate(497,403)" d="m0 0" fill="#008E9B"/>
</svg>
